<mxfile host="app.diagrams.net" agent="Mozilla/5.0 (Windows NT 10.0; Win64; x64) AppleWebKit/537.36 (KHTML, like Gecko) Chrome/139.0.0.0 Safari/537.36" version="28.1.2">
  <diagram name="페이지-1" id="u6Gsyj8I7Y9OUOO6mfj9">
    <mxGraphModel dx="1206" dy="1194" grid="1" gridSize="10" guides="1" tooltips="1" connect="1" arrows="1" fold="1" page="1" pageScale="1" pageWidth="827" pageHeight="1169" math="0" shadow="0">
      <root>
        <mxCell id="0" />
        <mxCell id="1" parent="0" />
        <mxCell id="Vue5yUmEFzqEzoZ8wVod-1" value="&lt;font style=&quot;font-size: 20px;&quot;&gt;Client&lt;/font&gt;" style="shape=umlActor;verticalLabelPosition=bottom;verticalAlign=top;html=1;outlineConnect=0;" parent="1" vertex="1">
          <mxGeometry x="40" y="512" width="70" height="144" as="geometry" />
        </mxCell>
        <mxCell id="SL1Ise8dDdFiKXGu1Fyh-1" value="" style="rounded=0;whiteSpace=wrap;html=1;" vertex="1" parent="1">
          <mxGeometry x="200" y="200" width="560" height="760" as="geometry" />
        </mxCell>
        <mxCell id="SL1Ise8dDdFiKXGu1Fyh-6" value="예약" style="ellipse;whiteSpace=wrap;html=1;" vertex="1" parent="1">
          <mxGeometry x="341" y="564" width="120" height="50" as="geometry" />
        </mxCell>
        <mxCell id="SL1Ise8dDdFiKXGu1Fyh-7" value="변경" style="ellipse;whiteSpace=wrap;html=1;" vertex="1" parent="1">
          <mxGeometry x="501" y="564" width="120" height="50" as="geometry" />
        </mxCell>
        <mxCell id="SL1Ise8dDdFiKXGu1Fyh-8" value="취소" style="ellipse;whiteSpace=wrap;html=1;" vertex="1" parent="1">
          <mxGeometry x="501" y="629" width="120" height="50" as="geometry" />
        </mxCell>
        <mxCell id="SL1Ise8dDdFiKXGu1Fyh-9" value="생성" style="ellipse;whiteSpace=wrap;html=1;" vertex="1" parent="1">
          <mxGeometry x="501" y="499" width="120" height="50" as="geometry" />
        </mxCell>
        <mxCell id="SL1Ise8dDdFiKXGu1Fyh-17" value="리뷰" style="ellipse;whiteSpace=wrap;html=1;" vertex="1" parent="1">
          <mxGeometry x="341" y="820" width="120" height="50" as="geometry" />
        </mxCell>
        <mxCell id="SL1Ise8dDdFiKXGu1Fyh-20" value="작성" style="ellipse;whiteSpace=wrap;html=1;" vertex="1" parent="1">
          <mxGeometry x="501" y="755" width="120" height="50" as="geometry" />
        </mxCell>
        <mxCell id="SL1Ise8dDdFiKXGu1Fyh-25" value="검색/발견" style="ellipse;whiteSpace=wrap;html=1;" vertex="1" parent="1">
          <mxGeometry x="341" y="300" width="120" height="50" as="geometry" />
        </mxCell>
        <mxCell id="SL1Ise8dDdFiKXGu1Fyh-26" value="상세보기" style="ellipse;whiteSpace=wrap;html=1;" vertex="1" parent="1">
          <mxGeometry x="501" y="300" width="120" height="50" as="geometry" />
        </mxCell>
        <mxCell id="SL1Ise8dDdFiKXGu1Fyh-27" value="즐겨찾기" style="ellipse;whiteSpace=wrap;html=1;" vertex="1" parent="1">
          <mxGeometry x="501" y="365" width="120" height="50" as="geometry" />
        </mxCell>
        <mxCell id="SL1Ise8dDdFiKXGu1Fyh-28" value="필터/정렬" style="ellipse;whiteSpace=wrap;html=1;" vertex="1" parent="1">
          <mxGeometry x="501" y="235" width="120" height="50" as="geometry" />
        </mxCell>
        <mxCell id="SL1Ise8dDdFiKXGu1Fyh-29" value="수정" style="ellipse;whiteSpace=wrap;html=1;" vertex="1" parent="1">
          <mxGeometry x="501" y="820" width="120" height="50" as="geometry" />
        </mxCell>
        <mxCell id="SL1Ise8dDdFiKXGu1Fyh-30" value="삭제" style="ellipse;whiteSpace=wrap;html=1;" vertex="1" parent="1">
          <mxGeometry x="501" y="885" width="120" height="50" as="geometry" />
        </mxCell>
        <mxCell id="SL1Ise8dDdFiKXGu1Fyh-31" value="로그인" style="ellipse;whiteSpace=wrap;html=1;" vertex="1" parent="1">
          <mxGeometry x="290" y="695" width="120" height="50" as="geometry" />
        </mxCell>
        <mxCell id="SL1Ise8dDdFiKXGu1Fyh-32" value="" style="endArrow=none;html=1;rounded=0;entryX=0;entryY=0.5;entryDx=0;entryDy=0;" edge="1" parent="1" target="SL1Ise8dDdFiKXGu1Fyh-6">
          <mxGeometry width="50" height="50" relative="1" as="geometry">
            <mxPoint x="120" y="589" as="sourcePoint" />
            <mxPoint x="400" y="610" as="targetPoint" />
          </mxGeometry>
        </mxCell>
        <mxCell id="SL1Ise8dDdFiKXGu1Fyh-33" value="" style="endArrow=none;html=1;rounded=0;entryX=0;entryY=1;entryDx=0;entryDy=0;" edge="1" parent="1" target="SL1Ise8dDdFiKXGu1Fyh-25">
          <mxGeometry width="50" height="50" relative="1" as="geometry">
            <mxPoint x="120" y="540" as="sourcePoint" />
            <mxPoint x="400" y="610" as="targetPoint" />
          </mxGeometry>
        </mxCell>
        <mxCell id="SL1Ise8dDdFiKXGu1Fyh-34" value="" style="endArrow=none;html=1;rounded=0;entryX=0;entryY=0;entryDx=0;entryDy=0;" edge="1" parent="1" target="SL1Ise8dDdFiKXGu1Fyh-17">
          <mxGeometry width="50" height="50" relative="1" as="geometry">
            <mxPoint x="120" y="660" as="sourcePoint" />
            <mxPoint x="400" y="610" as="targetPoint" />
          </mxGeometry>
        </mxCell>
        <mxCell id="SL1Ise8dDdFiKXGu1Fyh-35" value="" style="endArrow=classic;html=1;rounded=0;exitX=0;exitY=1;exitDx=0;exitDy=0;entryX=1;entryY=0;entryDx=0;entryDy=0;dashed=1;" edge="1" parent="1" source="SL1Ise8dDdFiKXGu1Fyh-28" target="SL1Ise8dDdFiKXGu1Fyh-25">
          <mxGeometry width="50" height="50" relative="1" as="geometry">
            <mxPoint x="350" y="660" as="sourcePoint" />
            <mxPoint x="400" y="610" as="targetPoint" />
          </mxGeometry>
        </mxCell>
        <mxCell id="SL1Ise8dDdFiKXGu1Fyh-36" value="" style="endArrow=classic;html=1;rounded=0;exitX=0;exitY=0.5;exitDx=0;exitDy=0;entryX=1;entryY=0.5;entryDx=0;entryDy=0;dashed=1;" edge="1" parent="1" source="SL1Ise8dDdFiKXGu1Fyh-26" target="SL1Ise8dDdFiKXGu1Fyh-25">
          <mxGeometry width="50" height="50" relative="1" as="geometry">
            <mxPoint x="594" y="300" as="sourcePoint" />
            <mxPoint x="520" y="331" as="targetPoint" />
          </mxGeometry>
        </mxCell>
        <mxCell id="SL1Ise8dDdFiKXGu1Fyh-37" value="" style="endArrow=classic;html=1;rounded=0;exitX=0;exitY=0;exitDx=0;exitDy=0;entryX=1;entryY=1;entryDx=0;entryDy=0;dashed=1;" edge="1" parent="1" source="SL1Ise8dDdFiKXGu1Fyh-27" target="SL1Ise8dDdFiKXGu1Fyh-25">
          <mxGeometry width="50" height="50" relative="1" as="geometry">
            <mxPoint x="574" y="430" as="sourcePoint" />
            <mxPoint x="500" y="461" as="targetPoint" />
          </mxGeometry>
        </mxCell>
        <mxCell id="SL1Ise8dDdFiKXGu1Fyh-38" value="" style="endArrow=classic;html=1;rounded=0;exitX=0;exitY=1;exitDx=0;exitDy=0;entryX=1;entryY=0;entryDx=0;entryDy=0;dashed=1;" edge="1" parent="1" source="SL1Ise8dDdFiKXGu1Fyh-9" target="SL1Ise8dDdFiKXGu1Fyh-6">
          <mxGeometry width="50" height="50" relative="1" as="geometry">
            <mxPoint x="514" y="480" as="sourcePoint" />
            <mxPoint x="440" y="511" as="targetPoint" />
          </mxGeometry>
        </mxCell>
        <mxCell id="SL1Ise8dDdFiKXGu1Fyh-39" value="" style="endArrow=classic;html=1;rounded=0;exitX=0;exitY=0.5;exitDx=0;exitDy=0;entryX=1;entryY=0.5;entryDx=0;entryDy=0;dashed=1;" edge="1" parent="1">
          <mxGeometry width="50" height="50" relative="1" as="geometry">
            <mxPoint x="500" y="590" as="sourcePoint" />
            <mxPoint x="460" y="590" as="targetPoint" />
          </mxGeometry>
        </mxCell>
        <mxCell id="SL1Ise8dDdFiKXGu1Fyh-40" value="" style="endArrow=classic;html=1;rounded=0;exitX=0;exitY=0;exitDx=0;exitDy=0;entryX=1;entryY=1;entryDx=0;entryDy=0;dashed=1;" edge="1" parent="1">
          <mxGeometry width="50" height="50" relative="1" as="geometry">
            <mxPoint x="517" y="638" as="sourcePoint" />
            <mxPoint x="443" y="607" as="targetPoint" />
          </mxGeometry>
        </mxCell>
        <mxCell id="SL1Ise8dDdFiKXGu1Fyh-41" value="" style="endArrow=classic;html=1;rounded=0;entryX=0.5;entryY=0;entryDx=0;entryDy=0;exitX=0.5;exitY=1;exitDx=0;exitDy=0;dashed=1;" edge="1" parent="1" source="SL1Ise8dDdFiKXGu1Fyh-6" target="SL1Ise8dDdFiKXGu1Fyh-31">
          <mxGeometry width="50" height="50" relative="1" as="geometry">
            <mxPoint x="924.2105263157895" y="480" as="sourcePoint" />
            <mxPoint x="530" y="601" as="targetPoint" />
          </mxGeometry>
        </mxCell>
        <mxCell id="SL1Ise8dDdFiKXGu1Fyh-42" value="" style="endArrow=classic;html=1;rounded=0;entryX=0.5;entryY=1;entryDx=0;entryDy=0;exitX=0.5;exitY=0;exitDx=0;exitDy=0;dashed=1;" edge="1" parent="1" source="SL1Ise8dDdFiKXGu1Fyh-17" target="SL1Ise8dDdFiKXGu1Fyh-31">
          <mxGeometry width="50" height="50" relative="1" as="geometry">
            <mxPoint x="461" y="710" as="sourcePoint" />
            <mxPoint x="410" y="791" as="targetPoint" />
          </mxGeometry>
        </mxCell>
        <mxCell id="SL1Ise8dDdFiKXGu1Fyh-43" value="" style="endArrow=classic;html=1;rounded=0;exitX=0;exitY=1;exitDx=0;exitDy=0;entryX=1;entryY=0;entryDx=0;entryDy=0;dashed=1;" edge="1" parent="1">
          <mxGeometry width="50" height="50" relative="1" as="geometry">
            <mxPoint x="517.5" y="796.5" as="sourcePoint" />
            <mxPoint x="443.5" y="827.5" as="targetPoint" />
          </mxGeometry>
        </mxCell>
        <mxCell id="SL1Ise8dDdFiKXGu1Fyh-44" value="" style="endArrow=classic;html=1;rounded=0;exitX=0;exitY=0.5;exitDx=0;exitDy=0;entryX=1;entryY=0.5;entryDx=0;entryDy=0;dashed=1;" edge="1" parent="1">
          <mxGeometry width="50" height="50" relative="1" as="geometry">
            <mxPoint x="499.5" y="845.5" as="sourcePoint" />
            <mxPoint x="459.5" y="845.5" as="targetPoint" />
          </mxGeometry>
        </mxCell>
        <mxCell id="SL1Ise8dDdFiKXGu1Fyh-45" value="" style="endArrow=classic;html=1;rounded=0;exitX=0;exitY=0;exitDx=0;exitDy=0;entryX=1;entryY=1;entryDx=0;entryDy=0;dashed=1;" edge="1" parent="1">
          <mxGeometry width="50" height="50" relative="1" as="geometry">
            <mxPoint x="516.5" y="893.5" as="sourcePoint" />
            <mxPoint x="442.5" y="862.5" as="targetPoint" />
          </mxGeometry>
        </mxCell>
        <mxCell id="SL1Ise8dDdFiKXGu1Fyh-47" value="&amp;lt;&amp;lt;extend&amp;gt;&amp;gt;" style="text;html=1;align=center;verticalAlign=middle;whiteSpace=wrap;rounded=0;" vertex="1" parent="1">
          <mxGeometry x="435" y="262" width="86" height="30" as="geometry" />
        </mxCell>
        <mxCell id="SL1Ise8dDdFiKXGu1Fyh-48" value="&amp;lt;&amp;lt;extend&amp;gt;&amp;gt;" style="text;html=1;align=center;verticalAlign=middle;whiteSpace=wrap;rounded=0;" vertex="1" parent="1">
          <mxGeometry x="437" y="359" width="86" height="30" as="geometry" />
        </mxCell>
        <mxCell id="SL1Ise8dDdFiKXGu1Fyh-49" value="&amp;lt;&amp;lt;extend&amp;gt;&amp;gt;" style="text;html=1;align=center;verticalAlign=middle;whiteSpace=wrap;rounded=0;" vertex="1" parent="1">
          <mxGeometry x="443" y="299" width="86" height="30" as="geometry" />
        </mxCell>
        <mxCell id="SL1Ise8dDdFiKXGu1Fyh-50" value="&amp;lt;&amp;lt;include&amp;gt;&amp;gt;" style="text;html=1;align=center;verticalAlign=middle;whiteSpace=wrap;rounded=0;" vertex="1" parent="1">
          <mxGeometry x="433" y="525.5" width="86" height="30" as="geometry" />
        </mxCell>
        <mxCell id="SL1Ise8dDdFiKXGu1Fyh-51" value="&amp;lt;&amp;lt;extend&amp;gt;&amp;gt;" style="text;html=1;align=center;verticalAlign=middle;whiteSpace=wrap;rounded=0;" vertex="1" parent="1">
          <mxGeometry x="435" y="622.5" width="86" height="30" as="geometry" />
        </mxCell>
        <mxCell id="SL1Ise8dDdFiKXGu1Fyh-52" value="&amp;lt;&amp;lt;extend&amp;gt;&amp;gt;" style="text;html=1;align=center;verticalAlign=middle;whiteSpace=wrap;rounded=0;" vertex="1" parent="1">
          <mxGeometry x="441" y="562.5" width="86" height="30" as="geometry" />
        </mxCell>
        <mxCell id="SL1Ise8dDdFiKXGu1Fyh-53" value="&amp;lt;&amp;lt;include&amp;gt;&amp;gt;" style="text;html=1;align=center;verticalAlign=middle;whiteSpace=wrap;rounded=0;" vertex="1" parent="1">
          <mxGeometry x="431" y="781.5" width="86" height="30" as="geometry" />
        </mxCell>
        <mxCell id="SL1Ise8dDdFiKXGu1Fyh-54" value="&amp;lt;&amp;lt;extend&amp;gt;&amp;gt;" style="text;html=1;align=center;verticalAlign=middle;whiteSpace=wrap;rounded=0;" vertex="1" parent="1">
          <mxGeometry x="433" y="878.5" width="86" height="30" as="geometry" />
        </mxCell>
        <mxCell id="SL1Ise8dDdFiKXGu1Fyh-55" value="&amp;lt;&amp;lt;extend&amp;gt;&amp;gt;" style="text;html=1;align=center;verticalAlign=middle;whiteSpace=wrap;rounded=0;" vertex="1" parent="1">
          <mxGeometry x="439" y="818.5" width="86" height="30" as="geometry" />
        </mxCell>
        <mxCell id="SL1Ise8dDdFiKXGu1Fyh-56" value="&amp;lt;&amp;lt;include&amp;gt;&amp;gt;" style="text;html=1;align=center;verticalAlign=middle;whiteSpace=wrap;rounded=0;" vertex="1" parent="1">
          <mxGeometry x="309" y="622.5" width="86" height="30" as="geometry" />
        </mxCell>
        <mxCell id="SL1Ise8dDdFiKXGu1Fyh-57" value="&amp;lt;&amp;lt;include&amp;gt;&amp;gt;" style="text;html=1;align=center;verticalAlign=middle;whiteSpace=wrap;rounded=0;" vertex="1" parent="1">
          <mxGeometry x="309" y="784" width="86" height="30" as="geometry" />
        </mxCell>
      </root>
    </mxGraphModel>
  </diagram>
</mxfile>
